<?xml version="1.0" encoding="UTF-8" standalone="no"?>
<svg
   version="1.0"
   width="624.89697pt"
   height="624.89697pt"
   viewBox="0 0 624.89697 624.89697"
   preserveAspectRatio="xMidYMid"
   id="svg9"
   sodipodi:docname="logo-planning-poker.svg"
   inkscape:version="1.3.2 (091e20ef0f, 2023-11-25)"
   xmlns:inkscape="http://www.inkscape.org/namespaces/inkscape"
   xmlns:sodipodi="http://sodipodi.sourceforge.net/DTD/sodipodi-0.dtd"
   xmlns="http://www.w3.org/2000/svg"
   xmlns:svg="http://www.w3.org/2000/svg">
  <defs
     id="defs9" />
  <sodipodi:namedview
     id="namedview9"
     pagecolor="#ffffff"
     bordercolor="#000000"
     borderopacity="0.25"
     inkscape:showpageshadow="2"
     inkscape:pageopacity="0.0"
     inkscape:pagecheckerboard="0"
     inkscape:deskcolor="#d1d1d1"
     inkscape:document-units="pt"
     inkscape:zoom="0.88396779"
     inkscape:cx="324.10683"
     inkscape:cy="407.82029"
     inkscape:window-width="2560"
     inkscape:window-height="1011"
     inkscape:window-x="1920"
     inkscape:window-y="32"
     inkscape:window-maximized="1"
     inkscape:current-layer="svg9" />
  <g
     transform="matrix(0.1,0,0,-0.1,69.466139,681.6972)"
     fill="currentColor"
     stroke="none"
     id="g9"
     style="fill:#212529;fill-opacity:1">
    <path
       d="m 2613,6805 c -60,-16 -137,-48 -273,-110 -52,-24 -270,-122 -485,-218 -404,-181 -616,-281 -578,-272 77,20 172,25 434,25 h 296 l 184,89 c 189,91 391,179 488,212 46,16 84,19 253,19 144,0 198,3 198,12 0,21 -61,106 -106,148 -72,67 -160,101 -268,106 -61,3 -108,-1 -143,-11 z"
       id="path1"
       style="fill:#212529;fill-opacity:1" />
    <path
       d="m 3341,6449 c -24,-5 -46,-10 -48,-12 -2,-3 27,-12 64,-21 93,-24 184,-64 294,-131 l 94,-57 124,1 c 69,1 127,4 130,6 2,3 -7,22 -21,42 -64,96 -155,155 -264,173 -71,12 -312,11 -373,-1 z"
       id="path2"
       style="fill:#212529;fill-opacity:1" />
    <path
       d="m 2678,6249 c -348,-51 -708,-279 -900,-569 -160,-242 -230,-478 -231,-775 0,-221 34,-386 120,-585 107,-246 264,-441 493,-613 41,-31 96,-72 122,-91 27,-20 72,-73 109,-128 115,-169 305,-335 489,-428 31,-16 132,-58 224,-94 229,-90 336,-147 407,-217 74,-72 102,-132 102,-219 0,-75 -17,-116 -72,-173 -75,-80 -133,-92 -363,-78 -182,12 -942,54 -1285,71 -230,12 -332,2 -483,-46 -104,-32 -144,-52 -238,-117 -225,-155 -363,-418 -362,-690 1,-176 48,-322 152,-478 153,-230 370,-370 668,-435 65,-14 162,-16 733,-16 811,1 816,2 1062,122 236,117 417,288 540,513 21,37 36,70 33,72 -2,2 -37,-19 -78,-47 -206,-139 -496,-227 -805,-243 -159,-9 -1216,30 -1358,49 -334,46 -547,339 -432,594 30,65 119,160 183,195 107,58 200,66 547,47 99,-5 311,-17 470,-25 160,-8 396,-20 525,-27 129,-7 270,-12 312,-12 216,4 395,78 538,223 84,85 140,174 172,271 29,89 36,278 14,372 -54,230 -228,433 -481,561 -39,19 -181,78 -315,131 -336,132 -398,159 -530,228 -155,80 -254,154 -365,270 -199,207 -288,424 -302,738 -10,227 27,414 118,609 164,348 458,617 798,731 114,38 173,39 226,3 176,-118 284,-201 496,-380 180,-152 204,-178 220,-236 22,-82 -38,-194 -140,-259 -58,-36 -94,-35 -161,5 -70,43 -197,95 -258,107 -26,5 -105,14 -176,20 -83,7 -144,17 -170,29 -50,22 -109,86 -126,136 -17,52 -8,139 23,215 14,35 24,66 21,69 -6,7 -89,-34 -154,-77 -83,-55 -204,-176 -256,-255 -140,-212 -201,-472 -176,-746 39,-412 192,-640 549,-819 134,-68 593,-262 618,-262 4,0 -14,26 -39,58 -179,229 -319,545 -361,817 -21,129 -16,387 9,495 18,80 62,210 75,223 12,12 176,-2 197,-18 16,-11 15,-19 -15,-99 -44,-122 -61,-234 -61,-400 0,-169 16,-274 64,-421 45,-138 174,-394 200,-395 17,0 138,104 215,186 173,185 283,395 346,659 35,145 45,273 34,420 -15,204 -51,340 -133,503 -202,401 -546,657 -981,727 -97,16 -322,18 -417,4 z m 128,-900 c 14,-49 29,-74 73,-122 l 56,-60 -158,6 c -87,3 -161,8 -164,10 -13,14 148,227 171,227 3,0 13,-28 22,-61 z m 108,-308 c 165,-1 178,-2 171,-18 -5,-15 -28,-110 -51,-212 l -5,-24 -237,7 c -130,3 -251,9 -268,12 -31,6 -32,8 -27,47 6,51 33,167 43,187 7,13 24,14 102,8 51,-3 173,-7 272,-7 z m -111,-377 217,-7 v -102 c 0,-57 3,-117 6,-135 l 7,-32 -252,4 c -199,2 -254,6 -260,17 -9,14 -25,108 -36,215 l -7,59 54,-6 c 29,-4 151,-10 271,-13 z m 75,-411 c 111,-4 175,-10 177,-17 2,-6 20,-65 41,-131 21,-66 40,-126 42,-132 3,-10 -38,-13 -178,-13 h -182 l -68,66 c -61,59 -111,133 -139,207 l -11,27 h 73 c 39,0 150,-3 245,-7 z m 390,-529 c 35,-58 62,-108 59,-110 -2,-2 -55,17 -118,42 -119,48 -229,107 -276,149 l -28,24 150,1 h 150 z"
       id="path3"
       style="fill:#212529;fill-opacity:1" />
    <path
       d="M 890,6038 C 830,6010 634,5924 448,5844 203,5739 124,5677 54,5534 17,5460 15,5451 12,5346 8,5221 -16,5329 246,4270 440,3486 484,3313 551,3075 l 34,-120 3,598 2,598 -80,332 c -44,183 -94,386 -110,452 -93,382 -95,398 -56,480 38,82 124,148 238,181 26,8 48,21 48,28 0,7 20,53 44,102 65,133 140,226 256,316 43,34 41,34 -40,-4 z"
       id="path4"
       style="fill:#212529;fill-opacity:1" />
    <path
       d="m 1405,6009 c -180,-10 -299,-61 -416,-178 -76,-76 -140,-196 -158,-295 -14,-78 -15,-3236 -1,-3236 5,0 44,24 87,53 43,30 107,68 141,87 l 62,33 2,1511 3,1511 34,62 c 63,117 161,173 304,173 h 82 l 40,63 c 33,52 77,108 162,208 12,14 1,16 -109,15 -68,-1 -172,-4 -233,-7 z"
       id="path5"
       style="fill:#212529;fill-opacity:1" />
    <path
       d="m 4058,5951 c 32,-38 81,-103 107,-144 47,-75 48,-76 90,-75 128,2 238,-73 284,-196 l 21,-57 -2,-2102 -3,-2102 -30,-54 c -58,-105 -155,-164 -280,-169 l -80,-4 -62,-92 c -34,-51 -81,-113 -103,-139 l -42,-47 h 196 c 225,0 271,7 382,61 137,65 240,177 290,313 l 24,67 v 2175 c 0,2145 0,2175 -20,2234 -40,118 -107,213 -197,277 -133,95 -247,123 -495,123 h -140 z"
       id="path6"
       style="fill:#212529;fill-opacity:1" />
    <path
       d="m 3371,5581 c -11,-11 -21,-26 -21,-32 0,-24 36,-69 65,-83 33,-16 165,-33 165,-22 0,12 -67,111 -88,129 -11,10 -38,21 -60,24 -32,4 -44,1 -61,-16 z"
       id="path7"
       style="fill:#212529;fill-opacity:1" />
    <path
       d="m 4075,1606 c -93,-40 -122,-160 -58,-237 51,-61 114,-74 190,-39 79,35 106,126 62,211 -33,66 -123,96 -194,65 z"
       id="path8"
       style="fill:#212529;fill-opacity:1" />
  </g>
</svg>
